<mxfile host="app.diagrams.net" agent="Mozilla/5.0 (Windows NT 10.0; Win64; x64) AppleWebKit/537.36 (KHTML, like Gecko) Chrome/127.0.0.0 Safari/537.36" version="24.7.6">
  <diagram id="C5RBs43oDa-KdzZeNtuy" name="Page-1">
    <mxGraphModel dx="1221" dy="733" grid="1" gridSize="10" guides="1" tooltips="1" connect="1" arrows="1" fold="1" page="1" pageScale="1" pageWidth="827" pageHeight="1169" math="0" shadow="0">
      <root>
        <mxCell id="WIyWlLk6GJQsqaUBKTNV-0" />
        <mxCell id="WIyWlLk6GJQsqaUBKTNV-1" parent="WIyWlLk6GJQsqaUBKTNV-0" />
        <mxCell id="kZSQYtRzj9z3R6yPAOl6-37" value="" style="group" vertex="1" connectable="0" parent="WIyWlLk6GJQsqaUBKTNV-1">
          <mxGeometry x="80" y="40" width="525" height="680" as="geometry" />
        </mxCell>
        <mxCell id="kZSQYtRzj9z3R6yPAOl6-15" style="edgeStyle=orthogonalEdgeStyle;rounded=0;orthogonalLoop=1;jettySize=auto;html=1;" edge="1" parent="kZSQYtRzj9z3R6yPAOl6-37" source="kZSQYtRzj9z3R6yPAOl6-13" target="kZSQYtRzj9z3R6yPAOl6-14">
          <mxGeometry relative="1" as="geometry" />
        </mxCell>
        <mxCell id="kZSQYtRzj9z3R6yPAOl6-13" value="시작" style="rounded=1;whiteSpace=wrap;html=1;absoluteArcSize=1;arcSize=14;strokeWidth=2;fontSize=18;" vertex="1" parent="kZSQYtRzj9z3R6yPAOl6-37">
          <mxGeometry width="120" height="80" as="geometry" />
        </mxCell>
        <mxCell id="kZSQYtRzj9z3R6yPAOl6-14" value="명령문 1" style="rounded=1;whiteSpace=wrap;html=1;absoluteArcSize=1;arcSize=14;strokeWidth=2;fontSize=18;" vertex="1" parent="kZSQYtRzj9z3R6yPAOl6-37">
          <mxGeometry y="120" width="120" height="80" as="geometry" />
        </mxCell>
        <mxCell id="kZSQYtRzj9z3R6yPAOl6-19" style="edgeStyle=orthogonalEdgeStyle;rounded=0;orthogonalLoop=1;jettySize=auto;html=1;exitX=1;exitY=0.5;exitDx=0;exitDy=0;exitPerimeter=0;entryX=0;entryY=0.5;entryDx=0;entryDy=0;" edge="1" parent="kZSQYtRzj9z3R6yPAOl6-37" source="kZSQYtRzj9z3R6yPAOl6-16" target="kZSQYtRzj9z3R6yPAOl6-18">
          <mxGeometry relative="1" as="geometry" />
        </mxCell>
        <mxCell id="kZSQYtRzj9z3R6yPAOl6-16" value="조건 수식" style="strokeWidth=2;html=1;shape=mxgraph.flowchart.decision;whiteSpace=wrap;fontSize=18;" vertex="1" parent="kZSQYtRzj9z3R6yPAOl6-37">
          <mxGeometry x="10" y="240" width="100" height="100" as="geometry" />
        </mxCell>
        <mxCell id="kZSQYtRzj9z3R6yPAOl6-17" style="edgeStyle=orthogonalEdgeStyle;rounded=0;orthogonalLoop=1;jettySize=auto;html=1;exitX=0.5;exitY=1;exitDx=0;exitDy=0;entryX=0.5;entryY=0;entryDx=0;entryDy=0;entryPerimeter=0;" edge="1" parent="kZSQYtRzj9z3R6yPAOl6-37" source="kZSQYtRzj9z3R6yPAOl6-14" target="kZSQYtRzj9z3R6yPAOl6-16">
          <mxGeometry relative="1" as="geometry" />
        </mxCell>
        <mxCell id="kZSQYtRzj9z3R6yPAOl6-21" style="edgeStyle=orthogonalEdgeStyle;rounded=0;orthogonalLoop=1;jettySize=auto;html=1;exitX=0.5;exitY=1;exitDx=0;exitDy=0;entryX=0.5;entryY=0;entryDx=0;entryDy=0;" edge="1" parent="kZSQYtRzj9z3R6yPAOl6-37" source="kZSQYtRzj9z3R6yPAOl6-18" target="kZSQYtRzj9z3R6yPAOl6-20">
          <mxGeometry relative="1" as="geometry" />
        </mxCell>
        <mxCell id="kZSQYtRzj9z3R6yPAOl6-18" value="명령문 2" style="rounded=1;whiteSpace=wrap;html=1;absoluteArcSize=1;arcSize=14;strokeWidth=2;fontSize=18;" vertex="1" parent="kZSQYtRzj9z3R6yPAOl6-37">
          <mxGeometry x="160" y="250" width="120" height="80" as="geometry" />
        </mxCell>
        <mxCell id="kZSQYtRzj9z3R6yPAOl6-24" style="edgeStyle=orthogonalEdgeStyle;rounded=0;orthogonalLoop=1;jettySize=auto;html=1;entryX=1;entryY=0.5;entryDx=0;entryDy=0;exitX=0.5;exitY=1;exitDx=0;exitDy=0;" edge="1" parent="kZSQYtRzj9z3R6yPAOl6-37" source="kZSQYtRzj9z3R6yPAOl6-20" target="kZSQYtRzj9z3R6yPAOl6-22">
          <mxGeometry relative="1" as="geometry">
            <mxPoint x="300" y="520" as="sourcePoint" />
            <mxPoint x="200" y="620" as="targetPoint" />
          </mxGeometry>
        </mxCell>
        <mxCell id="kZSQYtRzj9z3R6yPAOl6-20" value="명령문 3" style="rounded=1;whiteSpace=wrap;html=1;absoluteArcSize=1;arcSize=14;strokeWidth=2;fontSize=18;" vertex="1" parent="kZSQYtRzj9z3R6yPAOl6-37">
          <mxGeometry x="160" y="380" width="120" height="80" as="geometry" />
        </mxCell>
        <mxCell id="kZSQYtRzj9z3R6yPAOl6-25" style="edgeStyle=orthogonalEdgeStyle;rounded=0;orthogonalLoop=1;jettySize=auto;html=1;exitX=0.5;exitY=1;exitDx=0;exitDy=0;entryX=0.5;entryY=0;entryDx=0;entryDy=0;" edge="1" parent="kZSQYtRzj9z3R6yPAOl6-37" source="kZSQYtRzj9z3R6yPAOl6-22" target="kZSQYtRzj9z3R6yPAOl6-23">
          <mxGeometry relative="1" as="geometry" />
        </mxCell>
        <mxCell id="kZSQYtRzj9z3R6yPAOl6-22" value="명령문 4" style="rounded=1;whiteSpace=wrap;html=1;absoluteArcSize=1;arcSize=14;strokeWidth=2;fontSize=18;" vertex="1" parent="kZSQYtRzj9z3R6yPAOl6-37">
          <mxGeometry y="480" width="120" height="80" as="geometry" />
        </mxCell>
        <mxCell id="kZSQYtRzj9z3R6yPAOl6-23" value="종료" style="rounded=1;whiteSpace=wrap;html=1;absoluteArcSize=1;arcSize=14;strokeWidth=2;fontSize=18;" vertex="1" parent="kZSQYtRzj9z3R6yPAOl6-37">
          <mxGeometry y="600" width="120" height="80" as="geometry" />
        </mxCell>
        <mxCell id="kZSQYtRzj9z3R6yPAOl6-26" style="edgeStyle=orthogonalEdgeStyle;rounded=0;orthogonalLoop=1;jettySize=auto;html=1;" edge="1" parent="kZSQYtRzj9z3R6yPAOl6-37" source="kZSQYtRzj9z3R6yPAOl6-27" target="kZSQYtRzj9z3R6yPAOl6-28">
          <mxGeometry relative="1" as="geometry" />
        </mxCell>
        <mxCell id="kZSQYtRzj9z3R6yPAOl6-27" value="시작" style="rounded=1;whiteSpace=wrap;html=1;absoluteArcSize=1;arcSize=14;strokeWidth=2;fontSize=18;" vertex="1" parent="kZSQYtRzj9z3R6yPAOl6-37">
          <mxGeometry x="400" width="120" height="80" as="geometry" />
        </mxCell>
        <mxCell id="kZSQYtRzj9z3R6yPAOl6-28" value="명령문 1" style="rounded=1;whiteSpace=wrap;html=1;absoluteArcSize=1;arcSize=14;strokeWidth=2;fontSize=18;" vertex="1" parent="kZSQYtRzj9z3R6yPAOl6-37">
          <mxGeometry x="400" y="120" width="120" height="80" as="geometry" />
        </mxCell>
        <mxCell id="kZSQYtRzj9z3R6yPAOl6-34" style="edgeStyle=orthogonalEdgeStyle;rounded=0;orthogonalLoop=1;jettySize=auto;html=1;exitX=0.5;exitY=1;exitDx=0;exitDy=0;exitPerimeter=0;entryX=0.5;entryY=0;entryDx=0;entryDy=0;" edge="1" parent="kZSQYtRzj9z3R6yPAOl6-37" source="kZSQYtRzj9z3R6yPAOl6-29" target="kZSQYtRzj9z3R6yPAOl6-32">
          <mxGeometry relative="1" as="geometry" />
        </mxCell>
        <mxCell id="kZSQYtRzj9z3R6yPAOl6-29" value="조건 수식" style="strokeWidth=2;html=1;shape=mxgraph.flowchart.decision;whiteSpace=wrap;fontSize=18;" vertex="1" parent="kZSQYtRzj9z3R6yPAOl6-37">
          <mxGeometry x="410" y="240" width="100" height="100" as="geometry" />
        </mxCell>
        <mxCell id="kZSQYtRzj9z3R6yPAOl6-30" style="edgeStyle=orthogonalEdgeStyle;rounded=0;orthogonalLoop=1;jettySize=auto;html=1;exitX=0.5;exitY=1;exitDx=0;exitDy=0;entryX=0.5;entryY=0;entryDx=0;entryDy=0;entryPerimeter=0;" edge="1" parent="kZSQYtRzj9z3R6yPAOl6-37" source="kZSQYtRzj9z3R6yPAOl6-28" target="kZSQYtRzj9z3R6yPAOl6-29">
          <mxGeometry relative="1" as="geometry" />
        </mxCell>
        <mxCell id="kZSQYtRzj9z3R6yPAOl6-31" style="edgeStyle=orthogonalEdgeStyle;rounded=0;orthogonalLoop=1;jettySize=auto;html=1;exitX=0.5;exitY=1;exitDx=0;exitDy=0;entryX=0.5;entryY=0;entryDx=0;entryDy=0;" edge="1" parent="kZSQYtRzj9z3R6yPAOl6-37" source="kZSQYtRzj9z3R6yPAOl6-32" target="kZSQYtRzj9z3R6yPAOl6-33">
          <mxGeometry relative="1" as="geometry" />
        </mxCell>
        <mxCell id="kZSQYtRzj9z3R6yPAOl6-32" value="명령문 4" style="rounded=1;whiteSpace=wrap;html=1;absoluteArcSize=1;arcSize=14;strokeWidth=2;fontSize=18;" vertex="1" parent="kZSQYtRzj9z3R6yPAOl6-37">
          <mxGeometry x="400" y="480" width="120" height="80" as="geometry" />
        </mxCell>
        <mxCell id="kZSQYtRzj9z3R6yPAOl6-33" value="종료" style="rounded=1;whiteSpace=wrap;html=1;absoluteArcSize=1;arcSize=14;strokeWidth=2;fontSize=18;" vertex="1" parent="kZSQYtRzj9z3R6yPAOl6-37">
          <mxGeometry x="400" y="600" width="120" height="80" as="geometry" />
        </mxCell>
        <mxCell id="kZSQYtRzj9z3R6yPAOl6-35" value="참" style="text;html=1;align=center;verticalAlign=middle;resizable=0;points=[];autosize=1;strokeColor=none;fillColor=none;fontSize=18;" vertex="1" parent="kZSQYtRzj9z3R6yPAOl6-37">
          <mxGeometry x="110" y="293" width="40" height="40" as="geometry" />
        </mxCell>
        <mxCell id="kZSQYtRzj9z3R6yPAOl6-36" value="거짓" style="text;html=1;align=center;verticalAlign=middle;resizable=0;points=[];autosize=1;strokeColor=none;fillColor=none;fontSize=18;" vertex="1" parent="kZSQYtRzj9z3R6yPAOl6-37">
          <mxGeometry x="465" y="375" width="60" height="40" as="geometry" />
        </mxCell>
      </root>
    </mxGraphModel>
  </diagram>
</mxfile>
